# xmcd
#
# Track frame offsets: 
#        150
#        18700
#        47917
#        65286
#        123915
#        137142
#        154493
#        191885
#        216629
#        245829
#        266398
#        299415
#
# Disc length: 4626 seconds
#
# Revision: 0
# Processed by: cddbd v1.5.2PL0 Copyright (c) Steve Scherf et al.
# Submitted via: ExactAudioCopy v0.99pb3
#
DISCID=c812100c
DTITLE=Gray Moore - Essential Montreux [CD1]
DYEAR=1990
DGENRE=Blues
TTITLE0=All Your Love
TTITLE1=Midnight Blues
TTITLE2=You Don't Love Me
TTITLE3=Texas Strut
TTITLE4=Moving On
TTITLE5=Too Tired
TTITLE6=Cold Cold Feeling
TTITLE7=Further On Up The Road
TTITLE8=King Of The Blues
TTITLE9=Stop Messing Around
TTITLE10=The Blues Is Alright
TTITLE11=The Messiah Will Come Again
EXTD=
EXTT0=
EXTT1=
EXTT2=
EXTT3=
EXTT4=
EXTT5=
EXTT6=
EXTT7=
EXTT8=
EXTT9=
EXTT10=
EXTT11=
PLAYORDER=
